<svg xmlns="http://www.w3.org/2000/svg" width="1600" height="900" viewBox="0 0 1600 900">
<defs>
  <radialGradient id="g" cx="50%" cy="40%" r="70%">
    <stop offset="0%" stop-color="#3aa7ff" stop-opacity="0.25"/>
    <stop offset="100%" stop-color="#000000" stop-opacity="0"/>
  </radialGradient>
</defs>
<rect width="1600" height="900" fill="url(#g)"/>
<g fill="#0b1a2d" fill-opacity="0.55">
  <path d="M820 820c-10-120 40-180 40-260 0-70-40-120-60-150 60 20 140 90 140 180 0 90-60 140-70 230h-50z"/>
  <path d="M800 760c-60-10-150-40-220-120-70-80-70-200 10-270-20 90 50 160 110 200 60 40 120 60 160 80-30 30-45 70-60 110z"/>
  <path d="M860 760c60-10 150-40 220-120 70-80 70-200-10-270 20 90-50 160-110 200-60 40-120 60-160 80 30 30 45 70 60 110z"/>
  <circle cx="800" cy="360" r="220"/>
  <circle cx="630" cy="430" r="180"/>
  <circle cx="970" cy="430" r="180"/>
  <circle cx="800" cy="520" r="210"/>
</g>
</svg>